<mxfile host="app.diagrams.net" modified="2024-05-21T04:02:35.232Z" agent="Mozilla/5.0 (Macintosh; Intel Mac OS X 10_15_7) AppleWebKit/605.1.15 (KHTML, like Gecko) Version/17.4.1 Safari/605.1.15" version="24.4.3" etag="wJmeNlQFzxEu8endivpE" type="github">
  <diagram name="Page-1" id="B6KW3gWRQ2I1G80CQmeC">
    <mxGraphModel>
      <root>
        <mxCell id="0" />
        <mxCell id="1" parent="0" />
      </root>
    </mxGraphModel>
  </diagram>
</mxfile>
